<!--?xml version="1.0" standalone="no"?--><svg version="1.0" xmlns="http://www.w3.org/2000/svg" width="300.000000pt" height="300.000000pt" viewBox="0 0 300.000000 300.000000" preserveAspectRatio="xMidYMid meet">
<metadata>
  <rdf:rdf xmlns:rdf="http://www.w3.org/1999/02/22-rdf-syntax-ns#" xmlns:rdfs="http://www.w3.org/2000/01/rdf-schema#" xmlns:dc="http://purl.org/dc/elements/1.1/">
    <rdf:description dc:title="html document" dc:publisher="Hiox" dc:date="2015-05-05" dc:format="image/svg+xml" dc:language="en">
      <dc:creator>
        <rdf:bag>
          <rdf:li>svgimages.com</rdf:li>
        </rdf:bag>
      </dc:creator>
    </rdf:description>
  </rdf:rdf>
</metadata>
<g transform="translate(0.000000,300.000000) scale(0.100000,-0.100000)" fill="#020202" stroke="none">
<path d="M870 2582 c0 -393 -1 -420 -18 -435 -17 -15 -57 -17 -363 -17 -189 0
-350 -4 -357 -8 -10 -7 -12 -219 -10 -1051 3 -1019 3 -1043 22 -1057 17 -12
187 -14 1128 -14 l1109 0 -3 123 -3 122 -880 5 c-876 5 -880 5 -927 27 -62 29
-128 91 -158 150 l-25 48 0 460 0 460 28 57 c30 61 74 105 140 140 l42 23 890
5 890 5 3 666 c2 658 2 665 -18 687 l-21 22 -734 0 -735 0 0 -418z" id="node1" class="node"></path>
<path d="M719 2931 c-8 -11 -77 -88 -153 -173 -77 -84 -151 -166 -165 -183
-15 -16 -81 -91 -149 -166 -67 -75 -122 -142 -122 -148 0 -8 87 -11 310 -11
l310 0 0 350 c0 194 -4 350 -9 350 -5 0 -15 -9 -22 -19z" id="node2" class="node"></path>
<path d="M607 1484 c-47 -26 -75 -55 -91 -96 -14 -33 -16 -101 -16 -452 0
-450 1 -454 57 -508 64 -61 5 -58 1130 -58 l1028 0 52 24 c36 17 60 38 80 67
l28 43 3 408 c2 267 -1 421 -8 447 -13 51 -52 96 -101 121 -37 19 -65 20
-1086 20 -921 -1 -1051 -3 -1076 -16z m245 -421 l3 -108 133 -3 132 -3 0 111
0 110 35 0 35 0 -2 -242 -3 -243 -32 -3 -33 -3 0 116 0 116 -132 -3 -133 -3
-3 -113 -3 -113 -27 3 -27 3 -3 243 -2 242 29 0 30 0 3 -107z m788 82 c0 -25
-1 -25 -80 -25 l-80 0 0 -220 0 -220 -30 0 -30 0 0 220 0 220 -80 0 c-79 0
-80 0 -80 25 l0 25 190 0 190 0 0 -25z m151 5 c5 -8 45 -79 89 -158 44 -79 80
-148 80 -153 0 -23 22 7 66 89 115 215 134 242 165 242 l29 0 0 -245 0 -245
-25 0 -25 0 0 191 c0 152 -3 189 -12 181 -7 -6 -47 -74 -88 -151 -97 -183 -98
-183 -192 -16 -38 66 -73 132 -79 148 -6 15 -15 27 -20 27 -5 0 -10 -84 -11
-187 -3 -186 -3 -188 -25 -191 l-23 -3 0 246 0 246 31 -3 c18 -2 36 -10 40
-18z m621 -197 l3 -218 90 -1 c120 -2 115 -1 115 -29 l0 -25 -135 0 -135 0 0
245 0 245 30 0 30 0 2 -217z" id="node3" class="node"></path>
</g>
<g transform="translate(0.000000,300.000000) scale(0.100000,-0.100000)" fill="#FFFFFF" stroke="none">


<path d="M792 928 l3 -243 27 -3 27 -3 3 113 3 113 133 3 132 3 0 -116 0 -116
33 3 32 3 3 243 2 242 -35 0 -35 0 0 -110 0 -111 -132 3 -133 3 -3 108 -3 107
-30 0 -29 0 2 -242z" id="node6" class="node"></path>
<path d="M1260 1145 c0 -25 1 -25 80 -25 l80 0 0 -220 0 -220 30 0 30 0 0 220
0 220 80 0 c79 0 80 0 80 25 l0 25 -190 0 -190 0 0 -25z" id="node7" class="node"></path>
<path d="M1720 925 l0 -246 23 3 c22 3 22 5 25 191 1 103 6 187 11 187 5 0 14
-12 20 -27 6 -16 41 -82 79 -148 94 -167 95 -167 192 16 41 77 81 145 88 151
9 8 12 -29 12 -181 l0 -191 25 0 25 0 0 245 0 245 -29 0 c-31 0 -50 -27 -165
-242 -44 -82 -66 -112 -66 -89 0 5 -36 74 -80 153 -44 79 -84 150 -89 158 -4
8 -22 16 -40 18 l-31 3 0 -246z" id="node8" class="node"></path>
<path d="M2350 925 l0 -245 135 0 135 0 0 25 c0 28 5 27 -115 29 l-90 1 -3
218 -2 217 -30 0 -30 0 0 -245z" id="node9" class="node"></path>
</g>
</svg>