<!--?xml version="1.0" standalone="no"?-->

<svg version="1.0" xmlns="http://www.w3.org/2000/svg" width="300.000000pt" height="300.000000pt" viewBox="0 0 300.000000 300.000000" preserveAspectRatio="xMidYMid meet">
<g transform="translate(0.000000,300.000000) scale(0.100000,-0.100000)" fill="#2F2C2D" stroke="none">
<path class="node" id="node1" d="M702 2693 l3 -188 60 0 60 0 3 63 3 63 52 -3 52 -3 -1 -58 c-1 -65 7
-71 87 -65 l44 3 3 188 2 188 -67 -3 -68 -3 0 -55 0 -55 -52 -3 -53 -3 0 60 0
61 -65 0 -65 0 2 -187z"></path>
<path class="node" id="node2" d="M1120 2818 l0 -63 50 3 50 4 0 -120 c0 -138 3 -145 77 -140 l48 3 2
105 c4 150 5 152 56 150 69 -3 67 -5 67 60 l0 60 -175 0 -175 0 0 -62z"></path>
<path class="node" id="node3" d="M1522 2693 l3 -188 55 0 55 0 5 88 5 89 25 -42 c56 -93 52 -92 98
-21 l41 63 3 -89 3 -88 60 0 60 0 3 188 2 187 -69 0 -69 0 -31 -54 c-16 -30
-34 -57 -40 -60 -5 -3 -24 20 -43 52 l-34 57 -67 3 -67 3 2 -188z"></path>
<path class="node" id="node4" d="M2002 2693 l3 -188 145 0 145 0 3 63 3 62 -86 0 c-74 0 -85 2 -86 18
0 9 0 65 -1 125 l0 107 -64 0 -64 0 2 -187z"></path>
<path class="node" id="node5" d="M524 2263 c4 -49 11 -131 16 -183 11 -102 39 -418 70 -780 11 -124
29 -326 40 -450 11 -124 25 -286 31 -360 6 -75 16 -140 22 -146 7 -6 50 -21
97 -33 47 -13 105 -29 130 -36 25 -7 97 -27 160 -44 63 -17 135 -38 160 -46
123 -39 245 -67 274 -61 28 6 82 20 221 61 49 14 298 83 460 127 44 12 85 25
91 30 6 4 14 54 18 111 4 56 11 138 16 182 6 44 17 161 25 260 8 99 24 279 35
400 10 121 26 303 35 405 8 102 22 250 30 330 8 80 17 184 21 233 l6 87 -982
0 -982 0 6 -87z m1582 -424 c-4 -50 -9 -104 -13 -120 l-5 -29 -470 0 -469 0 7
-82 c4 -46 10 -103 13 -128 l6 -45 449 4 449 4 -6 -59 c-4 -32 -16 -160 -27
-284 -11 -124 -24 -263 -29 -310 -6 -47 -10 -90 -10 -96 -1 -6 -20 -17 -43
-24 -60 -16 -170 -46 -253 -67 -38 -10 -74 -21 -80 -24 -5 -4 -36 -12 -67 -18
-53 -11 -65 -10 -185 23 -314 85 -358 98 -365 104 -6 7 -38 302 -38 357 0 24
1 24 113 27 61 2 114 2 116 1 2 -1 8 -44 13 -95 5 -51 14 -98 21 -105 7 -6 50
-21 97 -34 174 -44 170 -44 245 -21 37 12 74 22 81 22 26 0 113 33 118 45 7
19 29 295 24 300 -2 3 -193 8 -424 12 l-419 8 -7 75 c-4 41 -16 179 -27 307
-12 127 -24 257 -27 287 l-7 56 613 0 613 0 -7 -91z"></path>
</g>
<g transform="translate(0.000000,300.000000) scale(0.100000,-0.100000)" fill="#FFFFFF" stroke="none">

<path class="node" id="node7" d="M894 1874 c3 -30 15 -160 27 -287 11 -128 23 -266 27 -307 l7 -75
419 -8 c231 -4 422 -9 424 -12 5 -5 -17 -281 -24 -300 -5 -12 -92 -45 -118
-45 -7 0 -44 -10 -81 -22 -75 -23 -71 -23 -245 21 -47 13 -90 28 -97 34 -7 7
-16 54 -21 105 -5 51 -11 94 -13 95 -2 1 -55 1 -116 -1 -112 -3 -113 -3 -113
-27 0 -55 32 -350 38 -357 7 -6 51 -19 365 -104 120 -33 132 -34 185 -23 31 6
62 14 67 18 6 3 42 14 80 24 83 21 193 51 253 67 23 7 42 18 43 24 0 6 4 49
10 96 5 47 18 186 29 310 11 124 23 252 27 284 l6 59 -449 -4 -449 -4 -6 45
c-3 25 -9 82 -13 128 l-7 82 469 0 470 0 5 29 c4 16 9 70 13 120 l7 91 -613 0
-613 0 7 -56z"></path>
</g>
</svg>